<svg width="40" height="40" viewBox="0 0 40 40" fill="none" xmlns="http://www.w3.org/2000/svg">
<path d="M4 4C4 1.79086 5.79086 0 8 0H24L36 12V36C36 38.2091 34.2091 40 32 40H8C5.79086 40 4 38.2091 4 36V4Z" fill="#7B5CE5"/>
<path opacity="0.3" d="M24 0L36 12H28C25.7909 12 24 10.2091 24 8V0Z" fill="#F5F3FF"/>
<path d="M11.1035 32V25.61H13.6595C15.1895 25.61 16.1165 26.402 16.1165 27.698C16.1165 28.994 15.1895 29.795 13.6595 29.795H12.4715V32H11.1035ZM12.4715 28.643H13.5785C14.2985 28.643 14.7125 28.319 14.7125 27.698C14.7125 27.077 14.2985 26.762 13.5785 26.762H12.4715V28.643ZM16.9746 32V25.61H18.4866L21.0246 30.02V25.61H22.3926V32H20.8626L18.3426 27.743V32H16.9746ZM26.248 32.144C24.403 32.144 23.296 30.785 23.296 28.814C23.296 26.888 24.421 25.466 26.329 25.466C27.985 25.466 28.84 26.348 29.119 27.707L27.706 27.77C27.571 27.059 27.175 26.618 26.338 26.618C25.24 26.618 24.709 27.563 24.709 28.814C24.709 30.092 25.213 30.992 26.365 30.992C27.211 30.992 27.733 30.443 27.796 29.678H26.338V28.679H29.137V32H28.291L28.246 31.091C27.913 31.73 27.148 32.144 26.248 32.144Z" fill="white"/>
</svg>
